<?xml version="1.0" standalone="no"?>
<!DOCTYPE svg PUBLIC "-//W3C//DTD SVG 20010904//EN"
 "http://www.w3.org/TR/2001/REC-SVG-20010904/DTD/svg10.dtd">
<svg version="1.0" xmlns="http://www.w3.org/2000/svg"
 width="256.000000pt" height="143.000000pt" viewBox="0 0 256.000000 143.000000"
 preserveAspectRatio="xMidYMid meet">

<g transform="translate(0.000000,143.000000) scale(0.100000,-0.100000)"
fill="#000000" stroke="none">
<path d="M1265 1389 l-350 -37 -210 -100 -210 -101 -131 -116 -131 -117 -31
-104 c-21 -66 -32 -124 -32 -162 0 -32 -3 -93 -6 -135 -7 -75 -7 -76 -75 -161
-92 -114 -92 -126 -2 -252 l68 -94 123 0 c67 0 122 3 122 6 0 3 -27 44 -61 90
-33 46 -58 88 -55 93 13 21 269 192 276 184 4 -4 27 -87 50 -183 24 -96 44
-177 46 -179 4 -4 271 27 292 35 9 3 -2 19 -32 47 l-45 42 44 160 c25 88 47
165 49 171 3 7 41 6 127 -4 110 -12 130 -12 187 3 36 9 67 14 69 11 3 -3 0
-19 -6 -37 -8 -24 -6 -71 9 -205 11 -96 20 -178 20 -184 0 -6 52 -10 136 -10
l135 0 -30 43 -29 42 32 124 c18 69 37 126 42 128 5 1 45 -17 89 -40 l80 -42
-3 -52 c-3 -50 -2 -53 20 -53 27 0 199 28 204 33 5 5 -19 285 -25 295 -3 4
-46 27 -95 50 l-89 42 7 53 c3 28 6 66 6 83 0 27 4 32 49 46 l48 15 119 -68
c70 -40 131 -68 149 -69 17 0 70 -22 119 -49 l90 -49 38 19 c42 21 41 17 28
134 -7 70 -6 84 11 111 14 22 19 50 19 95 -1 57 -6 75 -50 159 l-49 94 19 33
c46 78 -44 126 -99 52 l-22 -30 -49 27 c-36 19 -124 42 -351 88 l-304 61 -350
-36z m194 -43 c-2 -2 -125 -54 -274 -114 -195 -80 -271 -107 -273 -97 -5 20
15 185 23 193 4 4 113 9 243 13 130 3 248 6 261 7 13 1 22 0 20 -2z m44 -168
c3 -89 4 -164 2 -167 -3 -2 -135 18 -295 44 -160 26 -289 50 -287 52 5 5 560
232 568 233 3 0 9 -73 12 -162z m197 113 c91 -26 163 -52 160 -57 -4 -10 -331
-216 -335 -212 -1 2 -5 74 -8 161 -5 119 -3 157 6 157 7 0 86 -22 177 -49z
m-802 -75 l-11 -108 -46 6 c-25 3 -106 11 -179 17 -73 7 -130 14 -127 17 6 6
369 180 372 178 1 -1 -3 -50 -9 -110z m1486 70 c-3 -8 -12 -17 -20 -20 -18 -7
-18 -1 2 18 19 20 25 20 18 2z m-239 -83 c-26 -43 -72 -105 -103 -137 l-57
-60 58 48 c58 49 59 49 97 36 31 -10 40 -19 45 -42 4 -16 5 -31 2 -34 -2 -2
-46 -7 -98 -10 -71 -5 -98 -3 -110 8 -15 12 -76 214 -68 223 5 5 273 52 278
49 2 -2 -18 -38 -44 -81z m89 -95 c7 -35 -12 -37 -78 -8 l-46 19 47 78 47 77
13 -69 c6 -39 14 -82 17 -97z m50 119 c44 -39 48 -46 42 -74 -5 -20 -19 -39
-39 -52 l-32 -20 -11 57 c-22 110 -25 132 -17 132 4 0 30 -20 57 -43z m140 -2
c-4 -8 -8 -15 -10 -15 -2 0 -4 7 -4 15 0 8 4 15 10 15 5 0 7 -7 4 -15z m-558
-210 c-14 -109 -27 -199 -29 -201 -3 -4 -284 169 -298 183 -4 4 72 58 169 119
97 61 178 108 180 104 1 -4 -9 -96 -22 -205z m69 74 l27 -96 -52 -81 c-29 -45
-53 -82 -54 -82 -1 0 8 78 20 173 13 94 24 176 24 181 0 20 9 -3 35 -95z m431
76 c-21 -16 -32 -13 -21 4 3 6 14 11 23 11 15 -1 15 -2 -2 -15z m50 -62 c4
-35 3 -53 -4 -53 -24 0 -44 14 -58 41 -14 28 -13 30 13 53 15 14 31 22 35 18
4 -4 10 -31 14 -59z m-1493 -203 c4 -4 -70 -26 -165 -48 -261 -63 -235 -62
-242 -11 -3 24 -8 97 -11 163 l-7 118 209 -107 c114 -59 212 -111 216 -115z
m-433 54 c5 -81 8 -150 6 -152 -2 -2 -57 23 -121 55 l-117 59 107 98 c59 54
109 96 111 93 2 -2 9 -71 14 -153z m1816 119 c-10 -10 -19 5 -10 18 6 11 8 11
12 0 2 -7 1 -15 -2 -18z m-1088 -29 c152 -26 278 -48 280 -49 5 -4 -204 -267
-213 -267 -4 0 -89 82 -190 181 -102 100 -177 181 -169 181 8 0 140 -21 292
-46z m1126 31 c3 -8 1 -15 -4 -15 -6 0 -10 7 -10 15 0 8 2 15 4 15 2 0 6 -7
10 -15z m-114 -24 c-16 -32 -30 -34 -30 -7 0 19 5 26 20 26 17 0 19 -3 10 -19z
m84 -70 c25 -36 44 -66 42 -68 -6 -7 -136 88 -136 99 0 17 33 50 40 41 4 -5
28 -37 54 -72z m-43 -32 c33 -22 59 -42 57 -44 -3 -3 -259 66 -290 78 -7 3 29
6 80 6 93 1 93 1 153 -40z m-586 -60 c80 -50 145 -93 145 -95 0 -3 -39 -86
-87 -186 -67 -138 -89 -176 -95 -162 -8 19 -118 510 -118 526 0 4 2 8 5 8 3 0
70 -41 150 -91z m297 33 c3 -30 -1 -35 -52 -64 l-54 -32 20 34 c68 115 81 124
86 62z m183 -84 c6 -5 -15 0 -45 13 -30 12 -67 26 -82 32 -15 6 -29 21 -32 33
-3 12 -9 30 -13 40 -5 14 127 -77 172 -118z m43 81 c83 -24 152 -45 152 -48 0
-9 -98 -71 -110 -71 -6 0 -57 34 -113 76 -121 91 -129 98 -102 91 11 -3 89
-25 173 -48z m-633 -227 c31 -138 55 -256 53 -261 -4 -11 -231 72 -235 86 -2
6 18 89 46 184 27 96 55 194 62 219 6 25 13 41 15 35 2 -5 28 -124 59 -263z
m-144 39 c-31 -113 -61 -200 -64 -194 -4 6 -22 47 -41 91 l-35 81 97 121 c53
67 98 118 99 113 1 -4 -24 -100 -56 -212z m-1063 110 l114 -57 -142 -33 c-78
-18 -143 -31 -144 -29 -5 5 47 178 53 177 3 0 57 -26 119 -58z m566 27 c-5 -7
-84 -105 -177 -216 -93 -112 -167 -206 -165 -208 2 -2 84 93 182 211 97 118
181 217 187 220 8 5 269 -133 292 -154 8 -8 -623 -282 -660 -286 -24 -3 -21
-14 -53 199 -12 76 -19 140 -16 143 4 4 387 100 409 102 5 1 5 -5 1 -11z
m1176 -74 c0 -2 -21 4 -47 12 -27 8 -58 17 -70 20 -27 7 -28 12 -7 35 15 17
19 16 70 -23 30 -22 54 -42 54 -44z m322 -106 c-7 -7 -38 -8 -85 -3 -66 6 -76
9 -81 28 -15 58 -10 59 75 16 45 -22 83 -39 84 -37 2 2 -32 23 -76 46 -43 24
-79 46 -79 50 0 4 26 24 58 44 l57 38 29 -86 c19 -59 25 -89 18 -96z m28 85
c0 -29 -3 -53 -7 -53 -5 0 -18 32 -29 70 l-21 70 28 -17 c26 -16 29 -23 29
-70z m-303 45 c59 -25 71 -33 57 -39 -32 -13 -39 -10 -94 31 -29 22 -50 40
-47 40 4 0 42 -14 84 -32z m-1822 -198 l-150 -150 -3 72 c-2 40 -1 91 3 113
l6 41 142 36 c78 20 144 36 147 37 3 1 -63 -67 -145 -149z m200 -29 c14 -90
24 -165 22 -167 -1 -2 -108 -32 -237 -69 -129 -36 -244 -68 -254 -71 -36 -12
73 117 258 304 99 100 182 179 183 175 1 -5 14 -82 28 -172z m1715 148 c0 -32
-7 -32 -43 -1 -13 12 -15 17 -5 24 29 18 48 9 48 -23z m-1009 -155 l-26 -106
-80 6 c-44 4 -97 9 -118 13 l-38 6 138 93 c76 51 141 93 144 93 4 1 -5 -47
-20 -105z m83 17 c20 -47 35 -85 33 -87 -5 -5 -121 -33 -125 -30 -3 3 7 47 39
170 6 21 12 36 13 35 2 -2 20 -42 40 -88z m186 -153 c63 -23 116 -43 118 -44
2 -1 -50 -72 -116 -157 l-119 -155 -6 141 c-9 186 -9 257 1 257 4 0 59 -19
122 -42z m279 -59 l33 -60 -74 37 c-40 20 -74 38 -76 39 -5 4 62 45 74 45 6 0
26 -27 43 -61z m-898 -101 l-38 -143 -78 -43 c-43 -23 -80 -42 -81 -42 -2 0
50 83 114 185 64 102 117 185 118 185 1 0 -15 -64 -35 -142z m-776 -57 l60
-19 -67 -1 c-62 -1 -68 1 -68 19 0 24 0 24 75 1z"/>
</g>
</svg>
